<svg width="300" height="300" viewBox="0 0 300 300" fill="none" xmlns="http://www.w3.org/2000/svg">
<g clip-path="url(#clip0_135_5864)">
<path fill-rule="evenodd" clip-rule="evenodd" d="M150.006 32.5916C119.211 32.5916 94.2524 57.5181 94.2524 88.2739H61.6072C61.6072 39.5295 101.187 0 150.006 0C198.825 0 238.393 39.5295 238.393 88.2739H205.76C205.76 57.5181 180.801 32.5916 150.006 32.5916Z" fill="#585CE5"/>
<path d="M167.397 70.2495C167.397 70.2495 166.394 82.2896 165.392 86.8076C164.389 91.3256 159.268 97.3456 152.334 97.9417C145.399 98.5377 138.476 93.4237 136.96 88.6076C136.196 86.1639 133.439 70.7502 133.439 70.7502L135.241 57.7088L142.176 54.0968L148.108 57.1008L161.262 53.1908L164.27 55.3962L167.385 70.2495H167.397Z" fill="#F5DEDE"/>
<path d="M143.787 93.7217C143.787 93.7217 143.381 101.542 142.486 102.853C141.591 104.164 134.847 106.06 134.847 106.06C134.847 106.06 143.191 115.394 151.021 114.583C158.851 113.773 167.194 106.155 167.194 106.155L167.695 103.842C167.695 103.842 162.372 103.842 161.369 102.042C160.367 100.242 159.758 92.4104 159.758 92.4104L143.787 93.7098V93.7217Z" fill="#F5DEDE"/>
<path d="M164.306 89.6329C163.028 88.4885 161.441 87.2844 158.839 85.9851C154.649 83.887 148.323 84.4711 144.635 85.9851C142.224 86.9745 139.538 88.6911 137.927 90.6581C140.445 94.7588 146.378 98.4543 152.334 97.9298C157.884 97.4529 162.264 93.4952 164.306 89.6209V89.6329Z" fill="#A1A3F6"/>
<path d="M189.491 183.808C189.491 183.808 209.376 192.832 219.224 200.258C229.071 207.685 237.307 212.704 237.307 223.134C237.307 233.565 227.257 239.383 217.612 240.992C207.968 242.601 192.296 239.585 192.296 239.585L195.113 217.913C195.113 217.913 185.874 216.709 178.438 214.909C171.002 213.109 154.53 210.498 147.702 210.498C140.875 210.498 134.692 211.893 127.399 214.802C117.647 218.7 113.744 223.468 113.744 223.468C113.744 223.468 121.598 226.15 122.995 226.353L124.403 226.556L117.779 249.432C117.779 249.432 99.4924 248.633 86.6372 244.02C73.782 239.406 71.5022 228.821 71.908 222.395C72.3139 215.97 76.9928 209.104 86.8401 202.881C96.6874 196.658 114.962 184.618 114.962 184.618L189.503 183.819L189.491 183.808Z" fill="#58C6CD"/>
<path d="M171.193 27.6563C161.119 24.4496 154.888 29.671 152.059 33.4856C149.23 37.3003 147.834 41.9375 147.834 41.9375L181.255 51.7961C181.255 51.7961 183.272 45.3588 182.055 39.5295C181.159 35.2142 180.037 30.4816 171.181 27.6683L171.193 27.6563Z" fill="#F2D382"/>
<path d="M128.223 35.7268L180.73 51.5815" stroke="white" stroke-linecap="round" stroke-linejoin="round"/>
<path d="M133.522 71.9065C133.833 72.4668 134.406 71.5608 135.146 69.9396C136.829 66.268 135.444 59.9022 138.762 57.3035C141.221 55.3723 145.387 62.8228 149.815 63.2282C154.243 63.6335 155.747 61.2255 158.158 58.8174C160.569 56.4094 162.479 55.0028 163.685 58.0187C164.89 61.0347 165.296 67.0428 165.595 68.2468C165.988 69.8085 166.514 70.774 166.943 71.3582C167.23 71.7396 167.839 71.6085 167.91 71.1198C168.28 68.4018 169.152 61.0109 168.006 57.6015C166.597 53.3935 161.775 47.2661 150.925 47.2661C140.075 47.2661 135.802 52.5828 133.594 56.9936C131.386 61.4043 132.711 70.4403 133.522 71.8946V71.9065Z" fill="#585CE5"/>
<path d="M164.688 45.9668L165.821 42.5694" stroke="white" stroke-linecap="round" stroke-linejoin="round"/>
<path d="M167.003 39.0527L168.782 33.7599" stroke="white" stroke-linecap="round" stroke-linejoin="round"/>
<path d="M169.366 31.9956L170.512 28.61" stroke="white" stroke-linecap="round" stroke-linejoin="round"/>
<path d="M142.94 72.7768L143.238 76.353" stroke="#0F2851" stroke-linecap="round" stroke-linejoin="round"/>
<path d="M158.397 72.6695L158.206 76.1623" stroke="#0F2851" stroke-linecap="round" stroke-linejoin="round"/>
<path d="M150.997 71.7039C150.997 71.7039 149.087 79.4286 148.586 81.4313C148.084 83.434 149.791 83.5413 150.901 83.136C152.011 82.7307 153.611 81.4313 153.611 81.4313" stroke="#0F2851" stroke-linecap="round" stroke-linejoin="round"/>
<path d="M148.108 89.4063C148.108 89.4063 149.409 90.658 151.426 90.7057C152.93 90.7415 154.136 89.5971 154.136 89.5971" stroke="#0F2851" stroke-linecap="round" stroke-linejoin="round"/>
<path d="M138.81 70.3687C138.81 70.3687 139.371 69.3078 140.72 68.366C141.77 67.627 142.833 67.5674 142.833 67.5674" stroke="#0F2851" stroke-linecap="round" stroke-linejoin="round"/>
<path d="M157.55 67.1382C157.55 67.1382 159.113 67.7223 160.02 68.6044C160.927 69.4866 161.369 70.2376 161.369 70.2376" stroke="#0F2851" stroke-linecap="round" stroke-linejoin="round"/>
<path d="M134.847 73.349C134.847 73.349 131.636 71.4416 129.822 72.6456C128.008 73.8496 128.02 75.2563 128.82 77.9623C129.619 80.6684 131.636 84.6857 133.546 83.9824C135.456 83.279 136.256 81.777 136.256 81.777L134.847 73.349Z" fill="#F5DEDE"/>
<path d="M130.634 75.757L134.549 78.5107" stroke="#EEC1C1" stroke-linecap="round" stroke-linejoin="round"/>
<path d="M166.191 73.5516C166.191 73.5516 169.008 72.0496 170.214 72.145C171.419 72.2403 172.613 72.8602 172.529 74.8033C172.434 77.0087 171.228 81.5743 168.96 82.683C167.707 83.2909 165.499 82.1823 165.499 82.1823L166.203 73.5516H166.191Z" fill="#F5DEDE"/>
<path d="M169.605 75.0536L166.896 78.0696" stroke="#EEC1C1" stroke-linecap="round" stroke-linejoin="round"/>
<path d="M141.484 108.17C141.484 108.17 144.301 110.172 149.517 110.375C154.733 110.578 160.164 108.575 160.164 108.575L182.257 136.661C182.257 136.661 184.466 154.923 186.471 165.759C188.476 176.595 189.479 183.819 189.479 183.819C189.479 183.819 176.421 197.063 150.304 196.062C124.188 195.061 114.95 185.226 114.95 184.63C114.95 184.034 119.772 140.69 119.772 140.69L141.472 108.182L141.484 108.17Z" fill="white"/>
<path d="M212.814 217.293C212.814 217.293 209.197 218.294 204.793 218.593C200.782 218.867 194.707 218.271 194.707 218.271" stroke="#99D7DB" stroke-linecap="round" stroke-linejoin="round"/>
<path d="M108.934 220.333C108.934 220.333 111.273 222.288 113.756 223.337C116.239 224.386 117.647 224.541 117.647 224.541" stroke="#99D7DB" stroke-linecap="round" stroke-linejoin="round"/>
<path d="M186.686 216.721C186.686 216.721 179.643 215.326 174.224 213.622C169.342 212.084 162.372 208.901 162.372 208.901L157.752 212.978L156.022 220.667L155.807 228.141L163.064 222.622C163.064 222.622 169.641 226.103 172.601 227.712C178.784 231.074 184.525 233.446 184.525 233.446L186.686 216.733V216.721Z" fill="#F5DEDE"/>
<path d="M163.327 208.555L152.871 204.204L142.033 229.429L155.091 229.631L158.182 221.632C158.182 221.632 157.645 219.355 159.161 214.599C160.474 210.474 163.327 208.567 163.327 208.567V208.555Z" fill="#EF8B8B"/>
<path d="M84.417 185.214C84.417 185.214 86.1358 195.132 86.3387 196.944C86.5416 198.756 86.0284 201.665 86.8281 202.869C87.6278 204.073 91.2444 205.682 95.2669 208.686C99.2894 211.69 101.223 213.335 101.223 213.335C101.223 213.335 101.975 217.663 104.147 220.476C104.875 221.418 106.272 222.026 106.523 221.918C107.525 221.513 105.114 211.881 105.114 211.881C105.484 211.285 107.645 214.384 109.101 217.389C109.614 218.438 111.452 219.201 111.739 219.308C112.741 219.713 112.515 215.35 112.515 215.35C112.515 215.35 114.281 215.755 113.899 211.452C113.756 209.843 112.956 206.409 112.359 205.205C111.763 204.001 110.342 202.249 110.342 202.249C110.342 202.249 113.959 202.654 115.164 201.45C116.37 200.246 115.964 200.449 113.159 198.84C110.354 197.23 106.535 196.026 104.124 195.43C101.712 194.834 97.8929 194.429 97.8929 194.429L97.6899 182.592L84.4289 185.202L84.417 185.214Z" fill="#F5DEDE"/>
<path d="M98.084 197.052L97.6423 192.724" stroke="#EEC1C1" stroke-linecap="round" stroke-linejoin="round"/>
<path d="M104.804 204.419C104.804 204.419 108.934 206.696 109.34 207.697C109.746 208.698 112.443 215.302 112.443 215.302" stroke="#EEC1C1" stroke-linecap="round" stroke-linejoin="round"/>
<path d="M102.703 207.685C103.706 208.09 105.114 211.893 105.114 211.893" stroke="#EEC1C1" stroke-linecap="round" stroke-linejoin="round"/>
<path d="M105.723 200.664L110.342 202.273" stroke="#EEC1C1" stroke-linecap="round" stroke-linejoin="round"/>
<path d="M179.858 154.113C179.858 154.113 175.442 153.839 172.219 152.706C168.996 151.574 166.8 150.095 166.8 150.095C166.8 150.095 167.182 145.554 165.451 140.594C164.282 137.233 163.088 133.204 163.088 133.204C163.088 133.204 160.892 133.752 160.725 135.147C160.402 137.912 160.963 143.587 160.963 143.587C160.963 143.587 154.112 137.948 152.513 134.741C150.913 131.535 150.018 130.438 149.015 130.033C148.013 129.627 147.297 130.819 147.297 130.819C147.297 130.819 148.251 134.908 149.266 136.112C150.281 137.316 152.107 141.393 152.107 141.393C152.107 141.393 147.905 137.65 146.091 136.041C144.277 134.431 142.069 132.429 140.469 132.429C138.87 132.429 139.836 135.707 139.836 135.707C139.836 135.707 139.311 137.269 139.92 138.473C140.529 139.677 140.875 140.773 141.388 141.393C142.188 142.395 143.417 143.908 143.417 143.908C143.417 143.908 140.648 141.477 139.872 143.467C139.478 144.469 141.878 146.281 144.289 148.486C146.7 150.691 152.93 156.509 153.73 156.914C154.53 157.319 155.938 158.523 159.961 159.918C163.983 161.313 176.838 166.141 176.838 166.141L179.846 154.101L179.858 154.113Z" fill="#F5DEDE"/>
<path d="M154.386 299.988C184.789 299.988 209.436 295.873 209.436 290.797C209.436 285.721 184.789 281.606 154.386 281.606C123.984 281.606 99.3372 285.721 99.3372 290.797C99.3372 295.873 123.984 299.988 154.386 299.988Z" fill="#A1A3F6"/>
<path d="M127.411 244.413C127.411 244.413 132.508 242.661 136.446 241.409C140.72 240.038 146.091 238.202 146.091 238.202L154.733 244.222L152.119 225.96C152.119 225.96 144.086 227.962 138.858 228.368C133.63 228.773 130.216 228.368 130.216 228.368L127.399 244.425L127.411 244.413Z" fill="#F5DEDE"/>
<path d="M153.133 244.413C153.133 244.413 160.713 251.005 164.186 254.844C171.742 263.2 175.633 260.459 175.633 260.459L159.268 220.655L149.946 224.875C149.946 224.875 152.131 230.168 152.727 235.174C153.324 240.181 153.133 244.401 153.133 244.401V244.413Z" fill="#EF8B8B"/>
<path d="M175.633 260.459L159.268 220.655L149.946 224.875" stroke="#EEC1C1" stroke-linecap="round" stroke-linejoin="round"/>
<path d="M157.132 246.165C157.132 246.165 143.167 251.756 138.345 253.556C133.522 255.356 133.021 260.411 139.455 258.003C145.888 255.595 157.132 246.165 157.132 246.165V246.165Z" stroke="white" stroke-linecap="round" stroke-linejoin="round"/>
<path d="M137.64 248.979L157.132 246.165L161.751 259.612" stroke="white" stroke-linecap="round" stroke-linejoin="round"/>
<path d="M157.239 246.273C157.239 246.273 153.826 259.827 152.226 263.844C150.627 267.861 145.781 267.778 146.592 264.166C147.404 260.554 157.251 246.273 157.251 246.273H157.239Z" stroke="white" stroke-linecap="round" stroke-linejoin="round"/>
<path d="M132.842 225.542L130.025 253.842L116.764 252.031L124.033 224.219L132.842 225.542Z" fill="#99D7DB"/>
<path d="M186.149 215.565L177.698 240.241L193.191 243.281L195.471 217.079L186.149 215.565Z" fill="#99D7DB"/>
<path d="M139.836 135.719C139.836 135.719 142.677 138.961 143.978 140.428C145.279 141.894 146.747 143.026 146.747 143.026" stroke="#EEC1C1" stroke-linecap="round" stroke-linejoin="round"/>
<path d="M143.417 143.92L146.103 146.924" stroke="#EEC1C1" stroke-linecap="round" stroke-linejoin="round"/>
<path d="M168.805 25.1411L174.881 27.3106" stroke="#F2D382" stroke-linecap="round" stroke-linejoin="round"/>
<path d="M85.7181 192.832L97.7616 187.265L97.7139 184.63L84.4409 185.333C84.5603 186.037 85.2048 189.744 85.7061 192.832H85.7181Z" fill="#EEC1C1"/>
<path d="M136.256 100.135C136.256 100.135 136.459 102.746 137.664 104.748C138.87 106.751 141.484 108.158 141.484 108.158L119.784 140.869C119.784 140.869 119.187 139.259 114.556 143.682C109.925 148.105 103.3 156.926 101.092 165.95C99.4447 172.673 99.4805 185.619 99.4805 185.619L79.9888 188.027C79.9888 188.027 77.7807 175.189 79.392 163.745C81.2779 150.346 89.2513 130.176 106.117 116.395C123.794 101.947 136.256 100.147 136.256 100.147V100.135Z" fill="#0F2851"/>
<path d="M119.784 140.869L121.873 127.124" stroke="#585CE5" stroke-linecap="round" stroke-linejoin="round"/>
<path d="M172.768 164.639C175.132 165.521 176.838 166.153 176.838 166.153L179.846 154.113C179.846 154.113 177.805 153.982 175.49 153.552L172.756 164.639H172.768Z" fill="#EEC1C1"/>
<path d="M167.194 99.5391C167.194 99.5391 165.988 103.556 163.78 105.762C161.572 107.967 160.164 108.575 160.164 108.575L182.257 136.661C182.257 136.661 182.496 134.551 183.666 134.658C185.277 134.801 191.866 141.214 195.28 144.779C197.333 146.936 199.016 150.262 198.132 151.502C196.533 153.755 190.899 154.506 185.48 153.91C180.061 153.314 178.45 152.503 178.45 152.503L174.236 170.766C174.236 170.766 192.725 174.378 203.169 173.174C213.613 171.97 220.847 164.543 219.438 153.314C218.03 142.073 210.594 129.234 195.936 116.8C181.267 104.355 167.206 99.5391 167.206 99.5391H167.194Z" fill="#0F2851"/>
<path d="M180.729 126.79L182.269 136.661" stroke="#585CE5" stroke-linecap="round" stroke-linejoin="round"/>
<path opacity="0.52" d="M139.801 86.2712C141.482 86.2712 142.844 84.9102 142.844 83.2313C142.844 81.5525 141.482 80.1915 139.801 80.1915C138.12 80.1915 136.757 81.5525 136.757 83.2313C136.757 84.9102 138.12 86.2712 139.801 86.2712Z" fill="#EF8B8B"/>
<path opacity="0.52" d="M162.24 85.9493C163.921 85.9493 165.284 84.5883 165.284 82.9095C165.284 81.2306 163.921 79.8697 162.24 79.8697C160.559 79.8697 159.197 81.2306 159.197 82.9095C159.197 84.5883 160.559 85.9493 162.24 85.9493Z" fill="#EF8B8B"/>
</g>
<defs>
<clipPath id="clip0_135_5864">
<rect width="176.786" height="300" fill="white" transform="translate(61.6072)"/>
</clipPath>
</defs>
</svg>
