<svg width="300" height="300" viewBox="0 0 300 300" fill="none" xmlns="http://www.w3.org/2000/svg">
<path d="M148.372 38.9191C143.551 39.9915 142.607 42.9429 142.607 42.9429C142.607 42.9429 134.805 44.0152 133.359 47.7635C130.683 54.7288 134.166 55.5355 130.408 58.4869C126.65 61.4383 116.428 68.0101 123.039 77.6513C126.256 82.344 130.546 80.7306 133.094 85.5611C135.642 90.3915 130.546 99.4622 141.672 103.791C151.323 107.539 176.381 115.046 180.405 126.576C182.805 133.462 191.256 136.896 197.424 132.469C203.593 128.042 198.231 124.431 207.075 119.601C215.92 114.77 224.174 106.496 217.258 98.4292C210.824 90.9228 201.173 102.856 199.835 87.3024C198.497 71.7485 203.189 60.2282 191.659 56.4799C182.234 53.4105 180.267 59.2936 173.302 55.5453C165.972 51.6003 166.444 34.915 148.372 38.9289V38.9191Z" fill="#0F2851"/>
<path d="M183.72 84.2625L217.818 67.3214C217.818 67.3214 219.53 62.1761 221.252 60.0315C222.6 58.3492 225.286 55.9979 226.378 55.0534C226.633 54.8272 227.037 54.9157 227.174 55.2305C227.411 55.7716 227.647 56.5882 227.253 57.2375C226.614 58.3098 224.646 61.0251 224.646 61.0251C224.646 61.0251 224.459 61.6351 228.581 59.4904C230.145 58.6738 235.979 55.8897 236.806 55.5749C239.344 54.6107 238.823 56.903 238.163 57.326C236.944 58.1131 237.445 57.9556 236.245 58.5754C233.864 59.8052 232.625 60.4545 232.625 60.4545C232.625 60.4545 241.203 56.5193 242.276 57.4342C243.348 58.3492 241.43 60.4545 241.43 60.4545C241.43 60.4545 242.118 62.1958 239.334 63.2682C236.55 64.3405 236.206 64.7439 234.691 65.2751C234.346 65.3932 234.051 65.6391 234.917 65.5407C235.724 65.4522 239.472 64.3799 240.407 64.734C241.41 65.1177 240.495 67.0755 237.14 67.7149C231.149 68.866 231.779 70.5286 225.768 71.601C220.455 72.5454 220.445 72.6831 220.445 72.6831C220.445 72.6831 206.928 82.4523 202.255 85.8267C198.3 88.6797 185.451 95.6155 185.451 95.6155L183.74 84.2526L183.72 84.2625Z" fill="#F5DEDE"/>
<path d="M185.658 95.4974C186.199 95.2023 187.685 94.3956 189.583 93.3429L185.52 83.3574L183.917 84.1542L185.658 95.4974Z" fill="#EEC1C1"/>
<path d="M108.233 96.4813C108.233 96.4813 100.726 93.9037 92.5806 84.6855C84.4347 75.4673 80.7651 70.0761 80.7651 70.0761C80.7651 70.0761 77.7252 69.9187 72.5897 66.6623C68.0052 63.7502 63.2338 60.366 62.673 59.4904C62.0729 58.5558 62.8698 57.5424 63.7454 57.8179C64.2766 57.9852 68.1036 60.4939 68.1036 60.4939L68.2413 59.9626C68.2413 59.9626 64.9259 57.9458 63.3519 55.9389C61.7778 53.9319 62.9485 53.3219 62.9485 53.3219C62.9485 53.3219 62.7222 52.1807 62.8108 51.7774C62.9092 51.3445 63.0666 51.0199 63.7847 50.8034C64.5029 50.587 65.2703 50.7837 67.7003 52.712C70.1302 54.6402 71.3895 55.8601 71.3895 55.8601L71.8617 55.2895C71.8617 55.2895 68.6644 51.3543 68.3791 50.4984C68.0938 49.6425 68.7234 48.2751 70.1499 49.495C71.5764 50.7149 74.213 53.7942 74.9312 54.4336C75.6494 55.0731 77.43 56.4799 78.2958 57.267C79.1615 58.054 78.9451 57.8376 79.2304 55.1912C79.5157 52.5447 79.9387 51.7184 80.5782 51.2166C81.2177 50.7149 81.9063 51.1674 81.9063 51.1674L82.4376 55.1912C82.4376 55.1912 83.4312 58.8706 84.1396 60.73C84.5528 61.8023 84.9758 63.9667 84.9758 63.9667C84.9758 63.9667 89.7866 70.3023 95.8566 74.877C101.927 79.4517 112.581 84.8823 112.581 84.8823L108.223 96.4616L108.233 96.4813Z" fill="#F5DEDE"/>
<path d="M102.704 93.5692C104.406 94.6711 105.813 95.4187 106.777 95.8713L110.997 84.0755C110.584 83.8591 110.102 83.6033 109.571 83.3082L102.704 93.5594V93.5692Z" fill="#EEC1C1"/>
<path d="M124.633 146.448C124.633 146.448 122.439 146.232 117.766 143.231C113.418 140.428 113.044 138.942 113.044 138.942L125.538 141.677L124.623 146.448H124.633Z" fill="#0F2851"/>
<path d="M126.561 135.086C126.561 135.086 125.272 139.267 124.633 143.123C123.993 146.98 123.344 150.197 123.344 150.197C123.344 150.197 127.525 151.486 136.537 149.872C145.548 148.268 157.767 145.051 157.767 145.051L126.561 135.076V135.086Z" fill="#F5DEDE"/>
<path d="M124.741 142.376L124.042 146.291C124.042 146.291 127.545 147.452 133.477 147.521C142.272 147.629 150.31 146.773 150.31 146.773L124.741 142.376Z" fill="#EEC1C1"/>
<path d="M114.214 224.779C114.214 224.779 140.187 245.537 145.204 248.744C150.221 251.951 155.032 257.765 156.833 257.165C158.633 256.565 150.92 236.004 149.916 232.797C148.913 229.589 145.607 229.589 144.102 232.196C143.236 233.692 141.8 235.502 140.393 234.902C138.986 234.302 131.372 223.736 130.27 221.67C127.358 216.259 123.551 213.652 123.551 213.652L114.224 224.779H114.214Z" fill="#F5DEDE"/>
<path d="M119.379 228.891C120.619 229.875 122.016 230.986 123.511 232.157L129.886 221.001C128.794 219.102 127.614 217.587 126.571 216.426L119.379 228.881V228.891Z" fill="#EEC1C1"/>
<path d="M141.151 227.405C141.151 227.405 168.924 249.6 174.285 253.033C179.647 256.467 184.792 262.684 186.72 262.045C188.649 261.405 180.395 239.418 179.322 235.994C178.25 232.57 174.708 232.56 173.105 235.354C172.18 236.948 170.635 238.896 169.14 238.247C167.645 237.598 159.499 226.304 158.308 224.09C155.2 218.295 151.127 215.511 151.127 215.511L141.151 227.415V227.405Z" fill="#F5DEDE"/>
<path d="M169.13 238.237C169.13 238.237 174.492 242.743 175.131 243.815C175.771 244.888 175.564 245.743 175.564 245.743" stroke="#EEC1C1" stroke-linecap="round" stroke-linejoin="round"/>
<path d="M151.796 216.023L142.44 228.438C142.735 228.674 143.089 228.95 143.473 229.265L146.827 232.019L154.186 218.512C152.799 216.83 152.533 216.633 151.786 216.033L151.796 216.023Z" fill="#EEC1C1"/>
<path d="M134.451 92.1427L142.223 92.7822L143.296 79.009L152.514 79.2254L153.212 91.9853L161.899 90.7457L158.2 102.601L149.838 106.024L137.717 106.565L134.5 102.492L134.451 92.1427Z" fill="#F5DEDE"/>
<path d="M152.583 80.5044C150.989 80.829 147.86 81.38 146.08 81.1439C144.811 80.9766 143.827 80.7602 143.168 80.5831L142.745 86.0235C143.758 86.358 145.253 86.6728 147.368 86.722C149.592 86.7712 151.491 86.5253 152.897 86.24L152.583 80.5044Z" fill="#EEC1C1"/>
<path d="M148.343 300C171.673 300 190.587 297.529 190.587 294.481C190.587 291.433 171.673 288.962 148.343 288.962C125.012 288.962 106.098 291.433 106.098 294.481C106.098 297.529 125.012 300 148.343 300Z" fill="#A1A3F6"/>
<path d="M135.77 60.8972C135.77 60.8972 136.212 68.3052 136.468 71.5518C136.724 74.7983 139.124 81.5078 145.155 82.649C152.691 84.0755 156.764 80.5831 158.584 76.1756C160.404 71.7682 161.466 58.0147 161.466 58.0147L143.276 45.7565C143.276 45.7565 140.521 54.05 139.39 56.48C138.455 58.4869 135.77 60.9071 135.77 60.9071V60.8972Z" fill="#F5DEDE"/>
<path d="M139.528 45.2253C139.528 45.2253 135.337 51.1772 144.083 55.5453C148.106 57.5523 152.612 55.7027 156.006 57.021C160.158 58.6246 160.571 61.5859 168.068 62.6484C168.874 62.7664 168.038 58.2311 167.91 57.4441C167.428 54.2467 165.451 46.2287 157.708 43.4151C146.945 39.4995 139.528 45.2351 139.528 45.2351V45.2253Z" fill="#0F2851"/>
<path d="M147.683 65.9441C147.683 65.9441 146.119 70.9418 145.804 71.5714C145.489 72.2011 146.739 72.8209 147.683 73.0275" stroke="#0F2851" stroke-linecap="round" stroke-linejoin="round"/>
<path opacity="0.52" d="M140.226 74.2179C141.362 74.2179 142.282 73.2973 142.282 72.1617C142.282 71.0262 141.362 70.1056 140.226 70.1056C139.09 70.1056 138.17 71.0262 138.17 72.1617C138.17 73.2973 139.09 74.2179 140.226 74.2179Z" fill="#EF8B8B"/>
<path opacity="0.52" d="M156.065 75.3984C157.451 75.3984 158.574 74.2752 158.574 72.8897C158.574 71.5042 157.451 70.381 156.065 70.381C154.68 70.381 153.557 71.5042 153.557 72.8897C153.557 74.2752 154.68 75.3984 156.065 75.3984Z" fill="#EF8B8B"/>
<path d="M143.069 66.6525C143.069 66.6525 142.292 66.0819 141.357 66.0523C140.423 66.0228 139.646 66.6525 139.646 66.6525" stroke="#0F2851" stroke-linecap="round" stroke-linejoin="round"/>
<path d="M153.222 67.046C153.222 67.046 153.763 66.3573 154.944 66.4065C156.124 66.4557 156.646 67.2427 156.646 67.2427" stroke="#0F2851" stroke-linecap="round" stroke-linejoin="round"/>
<path d="M154.009 60.5037C154.009 60.5037 154.855 60.6316 155.79 61.1629C156.724 61.6941 157.167 62.1663 157.167 62.1663" stroke="#0F2851" stroke-linecap="round" stroke-linejoin="round"/>
<path d="M139.144 61.6941C139.144 61.6941 139.429 61.2219 140.688 60.6316C141.948 60.0413 142.577 60.1003 142.577 60.1003" stroke="#0F2851" stroke-linecap="round" stroke-linejoin="round"/>
<path d="M121.957 149.242L119.379 162.966C119.379 162.966 100.077 192.992 97.9326 197.065C95.7879 201.138 92.5709 207.149 99.7527 214.331C104.367 218.945 119.055 232.236 119.055 232.236L128.165 219.584L141.672 230.524L155.613 213.367L143.817 206.716C143.817 206.716 168.904 176.267 171.914 173.05C174.925 169.833 173.42 165.19 172.701 162.966C171.314 158.677 162.263 142.592 162.263 142.592C162.263 142.592 153.901 146.448 141.466 148.81C130.683 150.856 121.947 149.242 121.947 149.242H121.957Z" fill="#EF8B8B"/>
<path d="M128.174 219.574C128.174 219.574 123.669 215.826 120.884 211.743C118.494 208.251 119.812 204.985 120.884 201.345C121.957 197.704 134.392 167.462 134.392 167.462L128.283 163.39" stroke="#F5DEDE" stroke-linecap="round" stroke-linejoin="round"/>
<path d="M143.827 206.716L139.97 211.005" stroke="#F5DEDE" stroke-linecap="round" stroke-linejoin="round"/>
<path d="M211.453 47.675H211.404C210.322 47.6553 209.348 46.9961 208.777 45.9041C208.256 44.8908 208.02 43.3561 208.571 41.6049C207.498 42.1362 206.406 42.2444 205.413 41.9099C203.927 41.4082 202.874 39.9718 202.658 38.1715C202.323 35.3283 204.065 32.4162 207.311 30.3994C207.38 30.3601 207.449 30.3306 207.528 30.3207C207.606 30.3109 207.675 30.3109 207.754 30.3207C207.833 30.3404 207.902 30.3699 207.961 30.4093C208.02 30.4486 208.079 30.5077 208.118 30.5765C208.157 30.6454 208.187 30.7143 208.197 30.7831C208.207 30.8618 208.207 30.9307 208.197 31.0094C208.177 31.0881 208.148 31.157 208.098 31.216C208.059 31.275 208 31.334 207.931 31.3734C203.701 34.01 203.711 37.1385 203.819 38.0337C203.976 39.3914 204.734 40.4539 205.786 40.808C206.485 41.0442 207.931 41.1622 209.731 39.293C209.83 39.1848 209.968 39.1257 210.115 39.1159C210.263 39.1159 210.4 39.1553 210.518 39.2438C210.627 39.3323 210.705 39.4602 210.725 39.6078C210.745 39.7554 210.715 39.8931 210.637 40.021C209.141 42.2346 209.23 44.2317 209.82 45.363C210.194 46.0812 210.784 46.5042 211.443 46.5141H211.473C212.447 46.5141 213.499 45.6385 214.365 44.1136C214.444 43.9759 214.572 43.8775 214.709 43.8381C214.857 43.7988 215.014 43.8185 215.152 43.8873C215.29 43.966 215.388 44.0841 215.428 44.2415C215.467 44.3891 215.447 44.5465 215.378 44.6842C213.913 47.2716 212.319 47.675 211.473 47.675H211.453Z" fill="#A6D0EE"/>
<path d="M55.1469 125.002C55.0584 125.002 54.9797 124.982 54.901 124.952C54.8223 124.913 54.7534 124.864 54.7042 124.805C52.2546 121.903 51.3495 118.892 52.1955 116.551C52.717 115.124 53.8287 114.16 55.2552 113.914C56.6718 113.668 58.177 114.15 59.5249 115.272C59.4461 112.143 60.912 111.081 61.6203 110.756C63.1944 110.028 65.2801 110.756 66.8148 112.547C66.9132 112.665 66.9624 112.812 66.9525 112.97C66.9427 113.127 66.864 113.265 66.7459 113.363C66.6279 113.462 66.4803 113.511 66.3229 113.501C66.1655 113.491 66.0278 113.412 65.9294 113.304C64.739 111.907 63.1944 111.307 62.1024 111.809C60.8923 112.37 60.4103 114.209 60.8235 116.738C60.8431 116.866 60.8235 116.994 60.7644 117.102C60.7054 117.21 60.607 117.299 60.489 117.358C60.3709 117.407 60.243 117.426 60.1151 117.397C59.9872 117.367 59.879 117.298 59.8003 117.2C58.4624 115.587 56.8686 114.809 55.4421 115.065C54.4288 115.242 53.6417 115.931 53.2679 116.954C52.5694 118.873 53.4351 121.529 55.57 124.067C55.6388 124.156 55.688 124.254 55.6979 124.362C55.7077 124.47 55.6979 124.579 55.6487 124.687C55.5995 124.795 55.5306 124.874 55.4322 124.933C55.3437 124.992 55.2355 125.021 55.1174 125.021L55.1469 125.002Z" fill="#58C6CD"/>
<path d="M218.123 226.795C218.025 226.795 217.927 226.776 217.848 226.727C217.759 226.677 217.69 226.609 217.641 226.53C217.592 226.451 217.563 226.353 217.553 226.254C217.553 226.156 217.563 226.058 217.602 225.969C219.146 222.644 218.556 220.135 217.366 219.21C216.382 218.453 214.946 218.699 213.529 219.87C213.431 219.948 213.322 219.997 213.204 219.997C213.086 219.997 212.958 219.978 212.86 219.909C212.752 219.85 212.673 219.751 212.624 219.643C212.575 219.535 212.565 219.407 212.594 219.289C213.135 216.938 212.939 215.354 212.053 214.96C211.374 214.655 210.233 214.96 208.935 215.787C207.508 216.702 206.062 218.128 204.872 219.81C204.832 219.87 204.773 219.929 204.704 219.968C204.645 220.007 204.567 220.037 204.498 220.047C204.419 220.056 204.34 220.056 204.271 220.047C204.203 220.027 204.124 219.997 204.065 219.958C204.006 219.919 203.947 219.86 203.907 219.791C203.868 219.722 203.839 219.653 203.829 219.574C203.819 219.496 203.819 219.427 203.829 219.348C203.848 219.269 203.878 219.201 203.927 219.142C206.711 215.206 210.41 212.953 212.525 213.898C213.421 214.291 214.326 215.364 213.972 218.158C215.457 217.371 216.923 217.39 218.074 218.276C219.678 219.515 220.484 222.516 218.655 226.441C218.605 226.54 218.536 226.628 218.438 226.687C218.35 226.746 218.241 226.776 218.123 226.776V226.795Z" fill="#F2D382"/>
<path d="M100.854 58.7526C98.7884 58.7526 96.142 57.6999 94.4892 55.9586C94.3908 55.8503 94.3318 55.7028 94.3416 55.5454C94.3416 55.3978 94.4105 55.2502 94.5187 55.142C94.6269 55.0338 94.7745 54.9846 94.9221 54.9846C95.0697 54.9846 95.2172 55.0436 95.3254 55.1518C97.5292 57.4736 101.356 58.1032 102.409 57.1686C103.058 56.5882 102.576 55.1912 101.11 53.44C101.022 53.3318 100.972 53.2039 100.972 53.0662C100.972 52.9285 101.022 52.8006 101.1 52.6923C101.189 52.5841 101.307 52.5153 101.435 52.4956C101.563 52.4661 101.7 52.4956 101.819 52.5546C104.573 54.0697 108.262 54.6206 109.679 52.653C110.702 51.2166 109.836 48.9539 107.407 46.7404C107.288 46.6321 107.229 46.4944 107.22 46.337C107.22 46.1796 107.269 46.032 107.367 45.9238C107.475 45.8057 107.613 45.7467 107.771 45.7369C107.928 45.7369 108.075 45.7861 108.184 45.8844C109.669 47.2421 110.633 48.6096 111.047 49.9377C111.44 51.2166 111.293 52.3874 110.624 53.322C109.463 54.9452 106.669 55.7028 103.216 54.4533C103.894 55.6831 104.219 57.0801 103.156 58.0245C102.606 58.5164 101.779 58.7329 100.825 58.7329L100.854 58.7526Z" fill="#EF8B8B"/>
<path d="M234.543 124.077C234.287 124.077 234.031 124.047 233.785 123.988C231.837 123.546 230.067 121.273 229.87 117.623C229.014 118.715 227.961 119.453 226.82 118.971C224.715 118.076 224.056 113.255 225.089 110.166C225.138 110.018 225.246 109.9 225.384 109.831C225.521 109.763 225.679 109.753 225.826 109.802C225.974 109.851 226.092 109.959 226.161 110.097C226.23 110.235 226.24 110.392 226.19 110.54C225.748 111.868 225.64 113.599 225.905 115.164C226.151 116.58 226.682 117.662 227.273 117.908C227.961 118.204 228.984 117.21 229.998 115.252C230.057 115.134 230.165 115.036 230.283 114.987C230.401 114.937 230.549 114.928 230.677 114.967C230.804 115.006 230.923 115.085 230.991 115.203C231.07 115.311 231.1 115.449 231.09 115.587C230.755 118.715 231.68 122.326 234.051 122.867C235.763 123.26 237.524 121.578 238.616 118.489C238.665 118.341 238.773 118.223 238.911 118.164C239.049 118.095 239.206 118.086 239.354 118.145C239.501 118.194 239.619 118.302 239.678 118.44C239.747 118.577 239.757 118.735 239.698 118.882C239.019 120.781 238.144 122.198 237.071 123.083C236.274 123.752 235.409 124.087 234.533 124.087L234.543 124.077Z" fill="#EF8B8B"/>
<path d="M121.101 110.963C121.101 110.963 117.884 122.867 115.956 128.976C114.028 135.086 113.063 138.952 113.063 138.952C113.063 138.952 122.39 143.458 140.403 146.025C158.417 148.593 176.43 143.448 176.43 143.448C176.43 143.448 173.213 128.652 171.924 122.217C170.635 115.783 170.635 113.855 170.635 113.855L188.973 106.132L184.153 82.6491L159.381 89.7226C159.381 89.7226 160.02 103.555 146.837 104.519C133.645 105.483 135.583 90.4703 135.583 90.4703L111.775 82.3244L104.376 101.951L121.101 110.963Z" fill="#58C6CD"/>
<path d="M142.823 118.784C142.823 118.784 140.462 113.855 138.18 112.635C136.035 111.494 133.674 113.55 134.107 116.069C134.599 118.971 138.78 125.228 140.708 127.992C141.22 128.72 142.253 128.829 142.892 128.209C145.381 125.818 150.949 120.358 152.11 118.213C153.901 114.928 151.53 110.353 147.467 113.786C143.817 116.856 142.823 118.794 142.823 118.794V118.784Z" fill="#585CE5"/>
<path d="M123.167 104.775L121.101 110.963" stroke="#C9EBED" stroke-linecap="round" stroke-linejoin="round"/>
<path d="M170.635 113.855L169.779 107.529" stroke="#C9EBED" stroke-linecap="round" stroke-linejoin="round"/>
<path d="M161.201 152.666C161.201 152.666 166.779 163.39 165.49 167.679C164.201 171.968 142.331 199.416 142.331 199.416" stroke="#F5DEDE" stroke-linecap="round" stroke-linejoin="round"/>
<path d="M78.4926 57.7393C78.4926 57.7393 77.9908 59.7069 78.2073 61.4187C78.3745 62.7173 79.0632 63.5634 79.0632 63.5634" stroke="#EEC1C1" stroke-linecap="round" stroke-linejoin="round"/>
<path d="M75.6299 57.5621L72.3145 63.1403" stroke="#EEC1C1" stroke-linecap="round" stroke-linejoin="round"/>
<path d="M142.223 92.7822L142.115 94.9859" stroke="#EEC1C1" stroke-linecap="round" stroke-linejoin="round"/>
<path d="M224.636 61.0251L224.026 62.491C224.026 62.491 224.243 63.6716 223.81 65.708C223.377 67.7445 222.846 68.0692 222.846 68.0692" stroke="#EEC1C1" stroke-linecap="round" stroke-linejoin="round"/>
<path d="M228.434 61.7433C228.434 61.7433 228.542 63.6715 229.181 65.285C229.821 66.8984 230.362 67.8625 230.362 67.8625" stroke="#EEC1C1" stroke-linecap="round" stroke-linejoin="round"/>
<path d="M145.066 76.1757C145.066 76.1757 146.847 77.7104 148.647 77.3169C150.448 76.9233 151.058 75.8608 151.058 75.8608" stroke="#0F2851" stroke-linecap="round" stroke-linejoin="round"/>
<path d="M136.212 62.8943C136.212 62.8943 132.297 61.576 131.136 62.914C129.67 64.616 130.801 69.2694 133.133 70.0466C134.107 70.381 136.537 68.7184 136.537 68.7184L136.202 62.8845L136.212 62.8943Z" fill="#F5DEDE"/>
<path d="M160.266 64.2914C160.266 64.2914 163.906 62.0188 165.323 63.6716C167.084 65.7277 164.742 69.8006 163.837 70.3417C162.46 71.1681 159.794 69.417 159.794 69.417L160.276 64.2914H160.266Z" fill="#F5DEDE"/>
<path d="M132.985 64.8521L135.474 66.5344" stroke="#EEC1C1" stroke-linecap="round" stroke-linejoin="round"/>
<path d="M164.339 65.5014L161.466 67.2919" stroke="#EEC1C1" stroke-linecap="round" stroke-linejoin="round"/>
<path d="M225.699 177.173C229.172 172.696 228.453 166.331 224.105 162.957L211.532 179.18C215.88 182.554 222.226 181.649 225.689 177.173H225.699Z" fill="#EEC1C1"/>
<path d="M109.669 15.0718C113.634 16.8919 118.287 15.2489 120.058 11.4023L105.695 4.80096C103.924 8.64762 105.704 13.2518 109.669 15.0718Z" fill="#A1A3F6"/>
<path d="M61.827 229.757C66.4888 229.757 70.268 225.977 70.268 221.316C70.268 216.654 66.4888 212.875 61.827 212.875C57.1652 212.875 53.386 216.654 53.386 221.316C53.386 225.977 57.1652 229.757 61.827 229.757Z" fill="#F2D382"/>
<path d="M177.394 17.3346C182.056 17.3346 185.835 13.5554 185.835 8.89358C185.835 4.23174 182.056 0.452576 177.394 0.452576C172.732 0.452576 168.953 4.23174 168.953 8.89358C168.953 13.5554 172.732 17.3346 177.394 17.3346Z" fill="#58C6CD"/>
<path fill-rule="evenodd" clip-rule="evenodd" d="M216.471 257.136C214.985 253.653 210.715 252.128 206.938 253.742L205.364 250.053C211.355 247.495 218.133 249.905 220.485 255.434C222.836 260.963 219.884 267.505 213.893 270.063L212.319 266.374C216.097 264.76 217.966 260.628 216.48 257.146L216.471 257.136Z" fill="#A1A3F6"/>
<path fill-rule="evenodd" clip-rule="evenodd" d="M86.6187 152.774C82.3097 157.152 82.6737 164.501 87.4254 169.184L82.8606 173.828C75.3149 166.41 74.7443 154.762 81.5817 147.816C88.4191 140.87 100.067 141.244 107.613 148.662L103.048 153.306C98.2866 148.623 90.9376 148.387 86.6286 152.765L86.6187 152.774Z" fill="#C9EBED"/>
<path d="M140.462 47.37C140.462 47.37 143.541 53.1351 148.775 53.5384C154.009 53.9418 159.361 52.0627 164.319 57.0211C169.278 61.9794 171.344 70.2138 178.525 68.5414C185.707 66.8689 189.652 62.6484 197.021 66.3967C204.389 70.145 208.817 66.1311 208.817 66.1311" stroke="#585CE5" stroke-linecap="round" stroke-linejoin="round"/>
<path d="M132.552 91.7197C132.552 91.7197 132.149 96.8157 133.89 99.895C135.632 102.974 137.511 104.716 140.452 106.329C142.823 107.618 146.217 107.933 146.217 107.933" stroke="#C9EBED" stroke-linecap="round" stroke-linejoin="round"/>
<path d="M234.268 62.55L241.243 59.9626" stroke="#EEC1C1" stroke-linecap="round" stroke-linejoin="round"/>
<path d="M63.2732 52.8891L69.3039 57.3457" stroke="#EEC1C1" stroke-linecap="round" stroke-linejoin="round"/>
</svg>
