<svg width="300" height="300" viewBox="0 0 300 300" fill="none" xmlns="http://www.w3.org/2000/svg">
  <g clip-path="url(#clip0_136_3079)">
    <path d="M149.133 107.246C94.3224 107.246 49.8811 150.387 49.8811 203.607H248.373C248.373 150.387 203.943 107.246 149.122 107.246H149.133Z" fill="#58C6CD"/>
    <path d="M145.877 76.1819C145.877 76.1819 145.705 83.3811 144.082 85.702C142.073 88.5602 140.418 87.7435 140.418 87.7435C140.418 87.7435 139.999 92.9978 144.093 97.7256C148.187 102.453 153.968 99.5093 155.859 97.3066C157.75 95.1039 159.426 88.27 159.426 88.27C159.426 88.27 155.042 88.2271 154.387 83.8539C153.731 79.4806 154.279 74.8173 154.279 74.8173L145.877 76.1819Z" fill="#F5DEDE"/>
    <path d="M149.573 82.7686C151.937 82.7686 153.345 82.2744 154.161 81.7908C154 79.4484 154.097 77.192 154.183 75.9133L146.93 76.0208L145.877 76.1927C145.877 76.1927 145.812 78.8682 145.393 81.4792C146.156 82.0165 147.585 82.7794 149.573 82.7794V82.7686Z" fill="#EEC1C1"/>
    <path d="M146.307 120.064C166.991 120.355 171.504 114.617 171.504 114.617L125.719 113.327C125.719 113.327 130.307 119.839 146.307 120.064Z" fill="#585CE5"/>
    <path d="M280.436 300H19L33.5057 267.217H267.112L280.436 300Z" fill="#A1A3F6"/>
    <path d="M128.653 288.6C174.833 288.6 212.27 285.833 212.27 282.421C212.27 279.009 174.833 276.243 128.653 276.243C82.472 276.243 45.0352 279.009 45.0352 282.421C45.0352 285.833 82.472 288.6 128.653 288.6Z" fill="#585CE5"/>
    <path d="M138.001 89.2801C138.001 89.2801 118.402 78.5996 119.369 58.9685C120.336 39.3374 134.401 30.4728 140.053 27.5716C144.77 25.154 149.337 26.8732 149.648 22.1777C149.96 17.4821 149.96 4.59886 149.648 1.66547C149.337 -1.26791 147.446 -0.096703 146.178 3.12679C144.91 6.35029 141.761 19.5344 141.761 19.5344C141.761 19.5344 130.415 25.3904 123.807 31.5473C117.198 37.7042 105.078 50.2113 108.237 69.8424C111.385 89.4735 132.628 102.733 132.628 102.733L137.979 89.2586L138.001 89.2801Z" fill="#F5DEDE"/>
    <path d="M151.346 0.999269C150.089 1.59024 150.54 23.8968 151.346 24.4341C152.818 25.4119 155.536 26.4434 158.019 27.9369C161.919 30.3008 171.213 34.5451 176.758 47.1705C181.195 57.2922 181.056 66.5437 174.555 76.9663C168.054 87.3889 161.844 89.0759 161.844 89.0759L166.153 101.97C166.153 101.97 182.571 92.7937 188.663 76.3861C194.756 59.9785 187.105 41.9054 175.823 32.4391C165.733 23.972 156.923 20.1361 156.923 20.1361C156.923 20.1361 156.084 12.9047 155.139 9.3911C154.193 5.87749 153.398 0.0429649 151.346 0.999269Z" fill="#F5DEDE"/>
    <path d="M143.986 189.079C143.986 189.079 142.729 197.59 141.149 210.817C140.139 219.273 139.215 228.868 138.312 237.701C135.787 262.274 133.166 278.446 134.423 280.025C135.68 281.605 160.35 281.271 162.886 281.078C165.615 280.863 165.83 278.349 158.792 276.039C150.272 273.234 144.824 269.216 144.824 269.216L152.388 236.196L162.252 187.822L143.975 189.079H143.986Z" fill="#F5DEDE"/>
    <path d="M102.091 159.778C102.091 159.778 92.9254 168.675 91.0343 170.877C89.1432 173.08 87.9075 177.421 94.2148 182.461C100.522 187.5 128.846 210.129 128.846 210.129C128.846 210.129 135.153 233.961 135.798 235.39C136.851 237.701 138.559 236.1 138.635 235.39C139.999 222.787 140.601 216.458 141.869 205.347C142.062 203.639 133.187 203.446 133.187 203.446C133.187 203.446 121.625 186.243 117.843 182.149C114.061 178.055 113.008 176.271 113.008 176.271L119.831 172.489L102.08 159.778H102.091Z" fill="#F5DEDE"/>
    <path d="M136.959 53.8109C136.959 53.8109 138.012 68.091 139.58 71.4542C141.149 74.8173 145.254 79.1583 149.347 79.2228C155.289 79.3302 158.008 73.4527 159.007 71.0351C160.264 67.9943 160.683 57.9047 160.683 57.9047L140.515 46.2464L136.948 53.8109H136.959Z" fill="#F5DEDE"/>
    <path d="M135.164 114.101L136.744 128.908L158.803 129.531L162.575 112.521L135.164 114.101Z" fill="#F5DEDE"/>
    <path d="M162.166 114.359L140.945 113.768L135.164 114.101L135.658 118.754C138.452 119.484 141.955 120.011 146.307 120.075C152.668 120.161 157.503 119.678 161.145 118.968L162.166 114.359Z" fill="#EEC1C1"/>
    <path d="M139.988 44.6454C139.988 44.6454 139.473 53.7894 149.659 58.3345C154.978 60.7092 159.179 60.8811 161.124 60.6984C161.844 60.634 162.435 60.1504 162.66 59.4735C163.423 57.1526 164.713 50.6089 161.285 46.6977C156.869 41.6583 147.016 38.7894 139.988 44.6454Z" fill="#EF8B8B"/>
    <path d="M148.821 44.8603C152.738 44.8603 155.913 41.6853 155.913 37.7686C155.913 33.852 152.738 30.6769 148.821 30.6769C144.904 30.6769 141.729 33.852 141.729 37.7686C141.729 41.6853 144.904 44.8603 148.821 44.8603Z" fill="#EF8B8B"/>
    <path d="M144.931 162.615L143.352 189.391L163.198 190.648C163.198 190.648 170.44 157.253 171.074 151.268C171.708 145.283 158.782 129.531 158.782 129.531L136.722 128.897L102.07 159.778L120.97 173.327L142.181 158.725L144.91 162.615H144.931Z" fill="white"/>
    <path d="M146.199 222.486C146.199 222.486 149.348 222.797 151.239 220.906C153.13 219.015 153.764 216.812 153.764 216.812" stroke="#EEC1C1" stroke-linecap="round" stroke-linejoin="round"/>
    <path d="M138.946 154.115L144.931 162.615" stroke="#F5DEDE" stroke-linecap="round" stroke-linejoin="round"/>
    <path d="M107.442 172.382L112.771 176.228" stroke="#EEC1C1" stroke-linecap="round" stroke-linejoin="round"/>
    <path d="M140.117 44.4413C140.117 44.4413 142.986 48.7392 140.332 54.2084C138.903 57.1526 137.904 58.6354 136.948 59.538C136.539 59.9248 135.862 59.7314 135.712 59.1941C135.218 57.3782 134.39 53.7572 134.971 51.5867C136.335 46.4398 140.117 44.4413 140.117 44.4413Z" fill="#EF8B8B"/>
    <path d="M147.875 61.3754C147.875 61.3754 146.511 67.0487 146.296 67.7794C146.081 68.51 148.821 68.9398 148.821 68.9398" stroke="#0F2851" stroke-linecap="round" stroke-linejoin="round"/>
    <path d="M143.147 61.3754V63.5244" stroke="#0F2851" stroke-linecap="round" stroke-linejoin="round"/>
    <path d="M154.043 61.3969L153.968 63.6748" stroke="#0F2851" stroke-linecap="round" stroke-linejoin="round"/>
    <path d="M149.552 72.9262C149.552 72.9262 151.131 73.2378 152.077 72.3997C153.022 71.5616 153.022 70.7235 153.022 70.7235" stroke="#0F2851" stroke-linecap="round" stroke-linejoin="round"/>
    <path d="M138.044 61.7407C138.044 61.7407 134.262 60.9026 133.316 62.2672C132.113 64.0079 133.638 68.2199 135.884 68.7249C136.83 68.9398 138.925 67.1454 138.925 67.1454L138.033 61.7407H138.044Z" fill="#F5DEDE"/>
    <path d="M159.953 62.2135C159.953 62.2135 163.574 60.4513 164.723 62.1275C166.163 64.2228 163.574 67.7794 162.671 68.1984C161.307 68.8324 158.996 66.9413 158.996 66.9413L159.953 62.2135Z" fill="#F5DEDE"/>
    <path d="M138.85 262.285C138.85 262.285 137.066 271.107 137.378 272.783C137.689 274.459 138.85 275.093 138.85 275.093" stroke="#EEC1C1" stroke-linecap="round" stroke-linejoin="round"/>
    <path d="M54 261C52.6354 261.064 52.0946 262.65 52.5137 264.015C53 265.599 55.2966 274.148 62.8611 278.929C69.1791 282.915 102.618 280.552 104.401 280.605C106.185 280.659 106.701 280.186 106.496 278.66C106.325 277.339 100.877 242.633 99.3833 238.377C97.8897 234.122 96.9442 231.135 96.149 230.813C95.3539 230.491 94.3331 237.271 94.3331 237.271L87.0051 237.744C87.0051 237.744 84.4048 230.974 83.384 230.974C82.3632 230.974 81.8904 238.775 81.9657 244.524C82.0409 250.272 73.8747 276.275 73.8747 276.275C73.8747 276.275 70.0925 277.382 65.2142 275.254C62.4098 274.029 59.5086 270.806 57.0265 266.669C55.3718 263.908 55.5473 260.925 54 261Z" fill="#F2D382"/>
    <path d="M90.5615 242.719L91.2707 245.082" stroke="#585CE5" stroke-linecap="round" stroke-linejoin="round"/>
    <path d="M96.4714 241.687L97.1806 244.524" stroke="#585CE5" stroke-linecap="round" stroke-linejoin="round"/>
    <path d="M95.3752 251.991L95.3645 248.854" stroke="#585CE5" stroke-linecap="round" stroke-linejoin="round"/>
    <path d="M86.9834 264.434C86.9834 264.434 92.732 280.025 95.805 280.111C96.987 280.143 94.3867 264.52 94.3867 264.52C94.3867 264.52 98.4053 279.563 101.715 279.724C102.736 279.778 100.769 263.102 100.769 263.102" stroke="#585CE5" stroke-linecap="round" stroke-linejoin="round"/>
    <path d="M94.3438 237.282L97.4168 237.206" stroke="#585CE5" stroke-linecap="round" stroke-linejoin="round"/>
    <path d="M81.6111 248.284C81.6111 248.284 87.091 249.961 87.639 255.87C88.187 261.78 79.5158 262.435 79.591 265.197C79.6662 267.958 76.0452 268.979 76.0452 268.979L81.6111 248.295V248.284Z" fill="#0F2851"/>
    <path d="M138.635 85.111L125.719 113.338C125.719 113.338 135.905 117.668 152.292 117.034C168.678 116.4 171.514 114.617 171.514 114.617L161.855 84.8961L159.544 85.0036C159.544 85.0036 158.072 98.6604 149.358 98.6604C140.644 98.6604 140.644 85.2185 140.644 85.2185L138.645 85.111H138.635Z" fill="#0F2851"/>
    <path d="M141.332 208.668L137.915 242.138" stroke="#EEC1C1" stroke-linecap="round" stroke-linejoin="round"/>
    <path d="M96.4713 246.264C95.2894 246.264 93.6347 246.662 93.1619 246.737C92.6891 246.812 95.3646 249.499 95.5258 248.94C95.687 248.381 97.1805 246.264 96.4713 246.264Z" fill="#0F2851"/>
    <path opacity="0.52" d="M156.525 69.735C158.038 69.735 159.265 68.5082 159.265 66.995C159.265 65.4817 158.038 64.255 156.525 64.255C155.012 64.255 153.785 65.4817 153.785 66.995C153.785 68.5082 155.012 69.735 156.525 69.735Z" fill="#EF8B8B"/>
    <path opacity="0.52" d="M141.944 69.6168C143.202 69.6168 144.222 68.5969 144.222 67.3388C144.222 66.0807 143.202 65.0609 141.944 65.0609C140.686 65.0609 139.666 66.0807 139.666 67.3388C139.666 68.5969 140.686 69.6168 141.944 69.6168Z" fill="#EF8B8B"/>
    <path d="M135.229 63.8897L137.721 65.2113" stroke="#EEC1C1" stroke-linecap="round" stroke-linejoin="round"/>
    <path d="M163.627 63.7393L160.78 65.1361" stroke="#EEC1C1" stroke-linecap="round" stroke-linejoin="round"/>
    <path d="M141.084 58.399L143.792 57.0881" stroke="#0F2851" stroke-linecap="round" stroke-linejoin="round"/>
    <path d="M140.526 46.2464C140.526 46.2464 141.525 51.0817 149.433 55.4656C157.342 59.8496 166.636 57.0774 166.636 57.0774" stroke="#F5DEDE" stroke-linecap="round" stroke-linejoin="round"/>
    <path d="M110.085 60.3761L109.817 64.0938" stroke="#EEC1C1" stroke-linecap="round" stroke-linejoin="round"/>
    <path d="M188.32 60.9026L188.771 64.6096" stroke="#EEC1C1" stroke-linecap="round" stroke-linejoin="round"/>
  </g>
  <defs>
    <clipPath id="clip0_136_3079">
      <rect width="261.436" height="300" fill="white" transform="translate(19)"/>
    </clipPath>
  </defs>
</svg>
